# xmcd
#
# Track frame offsets: 
#        150
#        14178
#        34014
#        58769
#        78028
#        95879
#        115218
#        124206
#        143009
#        157540
#        169210
#        182513
#        198977
#        222184
#        250888
#        267612
#        284209
#        305783
#
# Disc length: 4205 seconds
#
# Revision: 0
# Processed by: cddbd v1.5.2PL0 Copyright (c) Steve Scherf et al.
# Submitted via: ExactAudioCopyFreeDBPlugin 1.0
#
DISCID=0e106b12
DTITLE=Gaither Gospel - Alleluia: Songs of Worship (2007)
DYEAR=2007
DGENRE=Southern Gospel
TTITLE0=Bill and Gloria Gaither - Majesty
TTITLE1=David Phelps - The Love of God
TTITLE2=Michael English - Lord, Feed Your Children
TTITLE3=Gaither Vocal Band - Satisfied
TTITLE4=Gaithers - Redeemed
TTITLE5=Bill and Gloria Gaither - I Will Praise Him
TTITLE6=Bill and Gloria Gaither - Just As I Am
TTITLE7=Wesley Pritchard - Sometimes, Alleluia
TTITLE8=Bob Cain - Our God Reigns
TTITLE9=Bill and Gloria Gaither - Blow the Trumpet in Zion
TTITLE10=Mark Lowry - Awesome God
TTITLE11=Janet Paschal - El Shaddai
TTITLE12=Joy Gardner - Holy Ground
TTITLE13=Wesley Pritchard - Sitting At The Feet of Jesus
TTITLE14=Gaithers - When God Seems So Near
TTITLE15=Bill and Gloria Gaither - Sweet, Sweet Spirit
TTITLE16=Gaithers - Worthy The Lamb
TTITLE17=Bill and Gloria Gaither - Alleluia
EXTD=YEAR: 2007
EXTT0=
EXTT1=
EXTT2=
EXTT3=
EXTT4=
EXTT5=
EXTT6=
EXTT7=
EXTT8=
EXTT9=
EXTT10=
EXTT11=
EXTT12=
EXTT13=
EXTT14=
EXTT15=
EXTT16=
EXTT17=
PLAYORDER=
